HIERARCHY
ROOT hip
{
  OFFSET 0 0 0
  CHANNELS 6 Xposition Yposition Zposition Zrotation Yrotation Xrotation
  JOINT abdomen
  {
    OFFSET 0 20.6881 -0.73152
    CHANNELS 3 Zrotation Xrotation Yrotation
    JOINT chest
    {
      OFFSET 0 11.7043 -0.48768
      CHANNELS 3 Zrotation Xrotation Yrotation
      JOINT neck
      {
        OFFSET 0 22.1894 -2.19456
        CHANNELS 3 Zrotation Xrotation Yrotation
        JOINT head
        {
          OFFSET -0.24384 7.07133 1.2192
          CHANNELS 3 Zrotation Xrotation Yrotation
          JOINT leftEye
          {
            OFFSET 4.14528 8.04674 8.04672
            CHANNELS 3 Zrotation Xrotation Yrotation
            End Site
            {
              OFFSET 1 0 0
            }
          }
          JOINT rightEye
          {
            OFFSET -3.6576 8.04674 8.04672
            CHANNELS 3 Zrotation Xrotation Yrotation
            End Site
            {
              OFFSET 1 0 0
            }
          }
        }
      }
      JOINT rCollar
      {
        OFFSET -2.68224 19.2634 -4.8768
        CHANNELS 3 Zrotation Xrotation Yrotation
        JOINT rShldr
        {
          OFFSET -8.77824 -1.95073 1.46304
          CHANNELS 3 Zrotation Xrotation Yrotation
          JOINT rForeArm
          {
            OFFSET -28.1742 -1.7115 0.48768
            CHANNELS 3 Zrotation Xrotation Yrotation
            JOINT rHand
            {
              OFFSET -22.5879 0.773209 7.07136
              CHANNELS 3 Zrotation Xrotation Yrotation
              JOINT rThumb1
              {
                OFFSET -1.2192 -0.487915 3.41376
                CHANNELS 3 Zrotation Xrotation Yrotation
                JOINT rThumb2
                {
                  OFFSET -3.37035 -0.52449 3.41376
                  CHANNELS 3 Zrotation Xrotation Yrotation
                  End Site
                  {
                    OFFSET -1.78271 -1.18214 1.43049
                  }
                }
              }
              JOINT rIndex1
              {
                OFFSET -7.75947 0.938293 5.60832
                CHANNELS 3 Zrotation Xrotation Yrotation
                JOINT rIndex2
                {
                  OFFSET -2.54057 -0.884171 1.56538
                  CHANNELS 3 Zrotation Xrotation Yrotation
                  End Site
                  {
                    OFFSET -1.62519 -0.234802 1.16502
                  }
                }
              }
              JOINT rMid1
              {
                OFFSET -8.24714 1.18213 3.41376
                CHANNELS 3 Zrotation Xrotation Yrotation
                JOINT rMid2
                {
                  OFFSET -3.10165 -0.590103 1.0647
                  CHANNELS 3 Zrotation Xrotation Yrotation
                  End Site
                  {
                    OFFSET -2.48547 -0.328903 0.83742
                  }
                }
              }
              JOINT rRing1
              {
                OFFSET -8.82822 0.546677 1.51678
                CHANNELS 3 Zrotation Xrotation Yrotation
                JOINT rRing2
                {
                  OFFSET -2.60934 -0.819778 -0.0198488
                  CHANNELS 3 Zrotation Xrotation Yrotation
                  End Site
                  {
                    OFFSET -2.33842 -0.294052 0.168128
                  }
                }
              }
              JOINT rPinky1
              {
                OFFSET -8.27202 -0.0477905 -0.4584
                CHANNELS 3 Zrotation Xrotation Yrotation
                JOINT rPinky2
                {
                  OFFSET -1.82734 -0.647385 -0.700984
                  CHANNELS 3 Zrotation Xrotation Yrotation
                  End Site
                  {
                    OFFSET -1.69225 -0.51767 -0.607171
                  }
                }
              }
            }
          }
        }
      }
      JOINT lCollar
      {
        OFFSET 2.68224 19.2634 -4.8768
        CHANNELS 3 Zrotation Xrotation Yrotation
        JOINT lShldr
        {
          OFFSET 8.77824 -1.95073 1.46304
          CHANNELS 3 Zrotation Xrotation Yrotation
          JOINT lForeArm
          {
            OFFSET 28.1742 -1.7115 0.48768
            CHANNELS 3 Zrotation Xrotation Yrotation
            JOINT lHand
            {
              OFFSET 22.5879 0.773209 7.07136
              CHANNELS 3 Zrotation Xrotation Yrotation
              JOINT lThumb1
              {
                OFFSET 1.2192 -0.487915 3.41376
                CHANNELS 3 Zrotation Xrotation Yrotation
                JOINT lThumb2
                {
                  OFFSET 3.37035 -0.52449 3.41376
                  CHANNELS 3 Zrotation Xrotation Yrotation
                  End Site
                  {
                    OFFSET 1.78271 -1.18214 1.43049
                  }
                }
              }
              JOINT lIndex1
              {
                OFFSET 7.75947 0.938293 5.60832
                CHANNELS 3 Zrotation Xrotation Yrotation
                JOINT lIndex2
                {
                  OFFSET 2.54057 -0.884171 1.56538
                  CHANNELS 3 Zrotation Xrotation Yrotation
                  End Site
                  {
                    OFFSET 1.62519 -0.234802 1.16502
                  }
                }
              }
              JOINT lMid1
              {
                OFFSET 8.24714 1.18213 3.41376
                CHANNELS 3 Zrotation Xrotation Yrotation
                JOINT lMid2
                {
                  OFFSET 3.10165 -0.590103 1.0647
                  CHANNELS 3 Zrotation Xrotation Yrotation
                  End Site
                  {
                    OFFSET 2.48547 -0.328903 0.83742
                  }
                }
              }
              JOINT lRing1
              {
                OFFSET 8.82822 0.546677 1.51678
                CHANNELS 3 Zrotation Xrotation Yrotation
                JOINT lRing2
                {
                  OFFSET 2.60934 -0.819778 -0.0198488
                  CHANNELS 3 Zrotation Xrotation Yrotation
                  End Site
                  {
                    OFFSET 2.33842 -0.294052 0.168128
                  }
                }
              }
              JOINT lPinky1
              {
                OFFSET 8.27202 -0.0477905 -0.4584
                CHANNELS 3 Zrotation Xrotation Yrotation
                JOINT lPinky2
                {
                  OFFSET 1.82734 -0.647385 -0.700984
                  CHANNELS 3 Zrotation Xrotation Yrotation
                  End Site
                  {
                    OFFSET 1.69225 -0.51767 -0.607171
                  }
                }
              }
            }
          }
        }
      }
    }
  }
  JOINT rButtock
  {
    OFFSET -8.77824 4.35084 1.2192
    CHANNELS 3 Zrotation Xrotation Yrotation
    JOINT rThigh
    {
      OFFSET 0 -1.70687 -2.19456
      CHANNELS 3 Zrotation Xrotation Yrotation
      JOINT rShin
      {
        OFFSET 0 -36.8199 0.73152
        CHANNELS 3 Zrotation Xrotation Yrotation
        JOINT rFoot
        {
          OFFSET 0.73152 -45.1104 -5.12064
          CHANNELS 3 Zrotation Xrotation Yrotation
          End Site
          {
            OFFSET -1.1221 -3.69964 12.103
          }
        }
      }
    }
  }
  JOINT lButtock
  {
    OFFSET 8.77824 4.35084 1.2192
    CHANNELS 3 Zrotation Xrotation Yrotation
    JOINT lThigh
    {
      OFFSET 0 -1.70687 -2.19456
      CHANNELS 3 Zrotation Xrotation Yrotation
      JOINT lShin
      {
        OFFSET 0 -36.8199 0.73152
        CHANNELS 3 Zrotation Xrotation Yrotation
        JOINT lFoot
        {
          OFFSET -0.73152 -45.1104 -5.12064
          CHANNELS 3 Zrotation Xrotation Yrotation
          End Site
          {
            OFFSET 1.1221 -3.69964 12.103
          }
        }
      }
    }
  }
}
MOTION
Frames:	7
Frame Time:	0.03333
25.7633 86.2919 63.908 -118.311267 39.790112 -126.106626 9.064001 54.089753 22.885274 -0.7971 -19.863478 -43.141084 -16.730883 30.704535 -94.537836 41.542293 36.699158 51.011758 -0.000267 -0.0 0.002086 0.000857 -0.0 -0.002151 -152.12099 14.142367 157.547896 87.320024 -41.783923 120.72284 -139.622968 -81.971782 -91.049312 -6.322169 5.340569 -1.559294 -8.901091 8.487755 2.009489 -133.886636 -35.355915 112.825776 37.214816 -57.918156 -0.644874 -138.100921 14.659423 109.482448 -23.865153 42.890836 18.666457 15.989757 -37.05237 -0.793385 -0.015001 -1.322939 -0.417257 -155.312152 -1.214776 171.99408 -51.178101 -49.740479 -49.890251 16.00736 41.588033 7.630547 5.825349 24.937186 -6.990226 124.660958 -11.396841 -98.141866 -16.070732 0.383165 144.977532 169.048283 14.737622 -139.630194 68.481669 37.954487 -35.659848 -37.422143 -32.760648 -16.650855 140.7623 1.380376 -116.229231 174.150733 -35.496045 -116.981455 -134.73268 -79.925895 -103.590521 171.293492 -28.274596 -143.989688 0.000588 -0.018338 0.006937 -11.513016 -41.081571 5.009992 86.000666 -50.495036 84.370478 -42.569433 80.342166 5.184081 179.995542 75.748573 0.00305 93.443249 -40.550709 -175.291108 -170.049807 -23.437702 -97.57982 -89.373065 57.145813 -175.729418 0.004857 -0.000191 0.002428 39.754671 -29.551754 180.0 13.979881 -43.420329 96.112451 107.249827 -33.154782 -169.823147
25.8629 84.8477 63.2072 -116.829433 39.916121 -127.365703 18.604812 57.313737 -0.0 3.271117 -20.013164 -24.488088 -15.588015 22.960015 -47.443789 46.572891 1.698249 14.071524 -0.000724 0.0 -0.003317 -0.001887 -0.0 0.000864 -6.042004 25.599278 7.233785 -103.705958 -11.850588 173.46656 -3.839938 -64.121727 -96.259318 175.057752 -18.007039 143.274251 178.740639 -18.647628 89.060029 -176.181183 -12.600495 98.060892 -117.258038 28.444204 99.153414 -167.942552 -18.730577 116.892782 -157.177348 3.643931 141.37248 -34.759475 54.921742 29.489866 -73.6257 72.972918 91.553846 5.094394 28.346817 -0.68373 -122.105821 -32.095304 -119.94576 -4.300255 -16.301063 -7.844617 142.973594 39.431132 -147.388858 159.689093 -85.660472 93.904629 78.355947 -49.907023 -46.670141 -9.824994 -54.865378 0.610557 -173.307985 -23.519289 -87.873 9.757299 -55.328359 4.666515 140.870462 1.210157 -116.290904 2.724355 21.672583 4.111674 173.037835 -44.087889 -144.92994 175.453899 -38.988764 -142.955485 145.119259 0.267618 179.21268 71.161225 87.696773 -84.425439 36.272509 -44.663207 35.163496 19.955903 -38.030652 21.795335 -0.001652 0.001215 -0.001652 -121.944467 -18.200616 78.979358 -164.348431 -26.164208 108.200217 -69.022985 61.172698 -5.150462 0.0 -0.000412 0.000537 39.735472 -28.977883 95.792059 55.78068 1.260609 97.144395 -31.503091 10.213446 -162.019232
25.947799999999997 83.2533 62.783699999999996 -116.13567 41.829986 -127.254162 17.49721 57.795993 49.271815 -11.792721 -16.515397 -74.692334 -16.481623 32.175052 -100.075802 42.229613 37.604286 54.710645 0.000678 0.0 0.000229 -0.001086 0.0 -0.003756 -155.460512 -3.228142 161.776389 -74.470887 35.271105 35.747396 110.779222 -77.269241 14.170574 -179.969979 -2.663748 143.395849 -4.905155 4.762166 0.951399 -144.501009 -51.43963 117.076096 -129.577365 16.761183 108.785477 9.487927 -3.256029 -8.799599 -158.52128 -0.1924 142.144611 45.905996 -70.677273 20.083654 -67.608174 -72.073334 -84.374907 -147.552864 -45.490157 -176.291486 -23.390796 -36.349419 -22.493539 -151.717702 29.353227 -146.939332 -0.059052 -0.352689 0.079259 21.316455 36.791519 -108.054086 -161.176918 65.848402 -50.961116 170.399317 11.881667 -140.360058 178.519973 -16.064014 -89.47538 41.857979 -19.815183 -2.840867 10.680032 15.143392 -6.94208 -53.787244 -49.218959 -12.232053 167.373956 -28.008513 -145.270114 4.933156 20.723447 -4.642598 145.120039 0.268182 179.211577 -12.055293 49.062492 3.275026 150.577637 31.033026 146.365894 102.870766 -47.305947 101.332095 179.99355 75.749881 0.006655 113.071284 -31.165153 -51.996646 -173.340646 36.013804 -150.789789 -30.702123 15.946094 -18.004072 0.000487 0.000955 0.000487 39.892592 -28.54381 22.549198 24.57174 46.277675 33.20372 -88.326494 14.811784 -2.290584
26.052599999999998 81.3798 62.5974 -117.515691 45.932775 -127.860393 17.949812 58.056207 -20.894997 10.35348 -17.88023 -2.517804 1.695081 21.118288 53.469474 -22.269561 -30.305018 -95.357689 0.000627 -0.0 -0.001799 0.004901 0.0 0.00187 -149.850422 22.601563 154.913493 156.784271 9.386435 128.211811 -1.890998 -11.030459 61.694171 -6.699337 5.438978 -1.610091 -7.758588 7.439007 1.682508 32.336662 -44.042494 -12.303739 -2.687067 4.226552 1.583624 167.486156 -46.518983 98.978502 78.537623 -80.918942 49.689477 -156.110818 15.586272 139.703154 0.004574 1.772402 0.556275 -154.376373 12.77138 170.103632 0.099775 0.258132 0.09119 -147.850551 13.361741 -144.095994 3.768279 17.920949 -4.641261 82.066681 -2.715096 -117.100759 171.354104 -48.915028 62.569124 7.512134 -3.717584 2.95965 78.029816 38.690012 -42.413132 147.245376 -31.507238 -83.110527 -24.07635 -42.306326 5.55869 -4.997197 15.477221 -1.01983 1.810931 5.118503 -1.059666 114.28339 59.297066 -104.70137 0.000105 0.022792 -0.006159 -10.325234 0.039572 0.059252 145.173689 12.067703 141.822651 -15.198639 38.504663 -5.615279 -179.997141 75.748777 -0.00295 120.607809 -35.235905 108.845288 154.271433 -28.405575 -65.985496 -140.589846 -52.019411 -12.725622 179.996518 75.750023 0.003592 -141.267505 31.067788 180.0 -32.058365 -47.300145 79.874768 34.790504 47.820469 55.698037
26.2215 79.5399 62.633799999999994 -119.414684 50.378957 -128.87261 9.408043 53.228934 139.536608 -15.985203 6.831069 -158.452524 -1.97786 19.13391 29.49731 -2.879685 -37.06533 -66.982529 -0.004311 0.0 -0.003848 0.001135 -0.0 -0.004152 -155.598408 -4.137628 161.970037 108.563607 -47.923595 144.295787 13.165706 74.196502 -109.854185 178.435684 -9.128834 143.45683 12.714057 -12.673753 -0.553399 25.157447 -65.562434 -28.281323 -174.890725 -54.095325 119.331385 84.622404 -68.01108 29.592724 -89.835019 60.701226 81.262728 3.134355 0.868414 0.284584 -145.063386 -3.307241 -178.086391 -62.308145 87.656909 75.825195 -23.393748 -36.348954 -22.493132 -159.238189 55.721939 -149.606741 -4.23911 -44.742741 8.648169 -85.696147 -3.230611 4.693342 48.907207 -17.826941 -142.141324 -73.708725 -78.392049 -56.242612 121.364618 30.329322 -71.957589 89.090301 -4.232255 -52.369165 -54.900465 -68.587493 -11.310793 -121.783322 -66.308475 -60.655214 -1.281998 -3.802967 0.680178 -3.152097 0.191707 0.00095 145.12132 1.975947 179.747795 79.75006 87.676875 -92.912548 75.780079 -51.668499 74.248928 -7.923422 13.100752 -2.574888 -0.00378 -0.001221 -0.00189 -128.144949 -41.049273 144.502688 -141.448383 15.724254 152.838932 -78.245122 29.248238 10.033709 -179.994835 75.749294 -0.004249 -143.178689 33.683472 -0.0 39.042525 44.443569 -9.512512 90.775026 -24.272481 -6.19245
26.4488 77.7705 62.9184 -121.137817 54.11035 -129.704721 7.484561 56.156625 5.299768 5.114009 -19.63079 -23.508386 5.945945 25.867697 81.704817 -40.442122 -12.622868 -123.486434 -0.001808 0.0 -0.002129 -0.001808 0.0 -0.002129 -33.83059 -85.666211 -55.247686 120.658027 40.774668 -121.613014 43.510732 -48.21925 103.722416 -17.83578 32.736951 3.644894 -177.747636 -15.324179 89.569711 -62.907726 -0.6446 14.326848 -160.101225 -33.161899 122.700959 -154.15473 -4.015495 118.957543 78.536675 -80.919427 49.688035 -83.39231 64.157326 75.162626 -0.021697 -1.72512 -0.542693 -151.165391 -72.680972 -174.593793 32.022026 83.320798 6.220676 -148.977087 13.258257 -143.056869 -4.239456 -44.742741 8.647824 -85.455106 14.235651 5.503197 29.730511 9.446995 -132.275762 -5.630492 -42.793194 2.182329 -4.531888 -4.513685 0.520681 -42.283412 -72.833396 18.64079 173.600569 -52.692769 -119.893197 60.603899 56.682057 -47.881681 36.036306 51.723433 -29.831321 -2.719227 2.012813 -0.349721 70.37867 -72.13054 87.279755 -14.009961 27.61273 0.812207 -1.132107 3.04128 -1.042163 153.614028 34.140495 147.995697 -0.0 0.000934 0.000519 -129.576534 -44.585727 -120.12405 169.20473 32.030297 57.52399 88.835486 -11.012278 -174.522791 0.001409 -0.000154 -0.001811 35.520661 -31.01175 -0.0 -23.884792 59.550743 94.128589 127.568499 -47.082174 18.560002
26.6741 76.1429 63.3887 -121.431912 56.348374 -129.392503 4.683263 54.399589 12.992119 3.659337 -19.610747 -29.155163 4.511171 23.007581 61.137517 -32.263791 -24.903917 -106.858341 0.00278 0.0 0.003967 -0.003125 0.0 -0.003778 3.269168 -26.755829 -5.241324 59.348838 15.429419 -35.467214 175.490362 33.447411 73.678437 -179.726676 -4.538801 143.29081 71.830901 -48.263102 25.792824 -158.671695 -40.682989 133.077546 -140.16587 2.326998 115.878331 -63.599229 56.774374 45.585657 -160.573079 -6.359853 143.196451 -167.439143 -17.359537 143.826284 -145.06138 -3.312198 -178.087807 -23.266905 -71.74486 -44.774778 -145.54179 13.24446 -142.150235 -148.17462 13.448374 -142.098599 159.220302 -48.028419 -170.415612 177.823506 -0.022129 115.762295 74.56715 -49.407122 -59.785717 -13.436715 -56.669253 -2.177457 0.544067 0.536227 -0.085108 130.460125 -27.678817 -115.172711 152.105688 -18.556274 -121.368159 4.924702 28.153932 1.868568 -6.532768 -20.414946 2.719062 -130.625187 -77.054901 -99.869085 -0.000975 0.022739 -0.006186 15.624798 69.58851 -28.531947 0.345924 -0.889749 0.319827 167.390889 72.967742 148.026089 0.011096 0.000771 0.009247 -134.148384 -48.647073 138.058523 -146.307233 9.408832 -84.440588 88.076929 24.467385 -174.957244 -0.005552 0.00077 -0.003701 35.914774 -32.069376 21.686322 -23.259433 70.001938 -112.119689 -60.712013 40.067139 178.338433
